<svg xmlns="http://www.w3.org/2000/svg" width="557" height="890" viewBox="0 0 557 890" version="1.1"><path d="M 80.385 110 C 80.385 116.875, 80.545 119.688, 80.740 116.250 C 80.936 112.813, 80.936 107.188, 80.740 103.750 C 80.545 100.313, 80.385 103.125, 80.385 110 M 450.250 200.689 C 451.212 200.941, 452.788 200.941, 453.750 200.689 C 454.712 200.438, 453.925 200.232, 452 200.232 C 450.075 200.232, 449.288 200.438, 450.250 200.689 M 466.762 200.707 C 468.006 200.946, 469.806 200.937, 470.762 200.687 C 471.718 200.437, 470.700 200.241, 468.500 200.252 C 466.300 200.263, 465.518 200.468, 466.762 200.707 M 480.090 206.250 C 483.002 208.588, 487.145 212.256, 489.296 214.401 C 493.187 218.282, 493.199 218.286, 491.578 215.151 C 490.682 213.418, 489.580 212, 489.130 212 C 488.680 212, 485.740 209.750, 482.597 207 C 479.455 204.250, 476.414 202, 475.839 202 C 475.265 202, 477.177 203.912, 480.090 206.250 M 431.250 204.716 C 432.762 204.945, 435.238 204.945, 436.750 204.716 C 438.262 204.487, 437.025 204.300, 434 204.300 C 430.975 204.300, 429.738 204.487, 431.250 204.716 M 410 215.548 C 405.405 220.067, 407.046 220.031, 411.817 215.509 C 413.843 213.588, 415.050 212.037, 414.500 212.062 C 413.950 212.086, 411.925 213.655, 410 215.548 M 399.412 226.265 C 393.022 233.270, 391.924 235.200, 397.447 229.719 C 400.651 226.540, 403.068 223.734, 402.818 223.484 C 402.568 223.234, 401.035 224.486, 399.412 226.265 M 188.776 245.733 C 191.128 245.945, 194.728 245.942, 196.776 245.727 C 198.824 245.512, 196.900 245.339, 192.500 245.343 C 188.100 245.346, 186.424 245.522, 188.776 245.733 M 168.296 264.744 C 172.583 264.932, 179.333 264.931, 183.296 264.742 C 187.258 264.552, 183.750 264.399, 175.500 264.400 C 167.250 264.401, 164.008 264.556, 168.296 264.744 M 148.264 266.718 C 149.784 266.947, 152.034 266.941, 153.264 266.704 C 154.494 266.467, 153.250 266.279, 150.500 266.286 C 147.750 266.294, 146.744 266.488, 148.264 266.718 M 10.300 446 C 10.300 449.025, 10.487 450.262, 10.716 448.750 C 10.945 447.238, 10.945 444.762, 10.716 443.250 C 10.487 441.738, 10.300 442.975, 10.300 446 M 8.397 471 C 8.397 478.975, 8.553 482.238, 8.743 478.250 C 8.932 474.262, 8.932 467.738, 8.743 463.750 C 8.553 459.762, 8.397 463.025, 8.397 471 M 6.392 504 C 6.392 511.425, 6.549 514.462, 6.742 510.750 C 6.934 507.038, 6.934 500.962, 6.742 497.250 C 6.549 493.538, 6.392 496.575, 6.392 504 M 549.328 508.500 C 549.333 512.350, 549.513 513.802, 549.730 511.728 C 549.946 509.653, 549.943 506.503, 549.722 504.728 C 549.501 502.952, 549.324 504.650, 549.328 508.500 M 8.370 533 C 8.370 538.775, 8.535 541.138, 8.737 538.250 C 8.939 535.362, 8.939 530.638, 8.737 527.750 C 8.535 524.862, 8.370 527.225, 8.370 533 M 247.455 541.455 C 245.667 543.242, 245 544.996, 245 547.907 C 245 550.107, 244.597 552.940, 244.104 554.203 C 243.611 555.466, 242.651 558.525, 241.969 561 C 240.603 565.960, 239.120 571.162, 237.976 575 C 237.567 576.375, 236.686 579.525, 236.019 582 C 235.351 584.475, 234.399 587.281, 233.903 588.236 C 233.406 589.191, 233 590.735, 233 591.665 C 233 593.295, 231.578 598.325, 229.937 602.500 C 229.504 603.600, 228.923 605.625, 228.645 607 C 228.168 609.359, 227.213 612.905, 224.877 621 C 224.322 622.925, 223.477 626.075, 223 628 C 222.523 629.925, 221.622 633.300, 220.997 635.500 C 220.372 637.700, 219.633 640.625, 219.355 642 C 219.077 643.375, 218.467 645.400, 218 646.500 C 217.533 647.600, 216.872 649.850, 216.531 651.500 C 216.190 653.150, 215.456 656.300, 214.901 658.500 C 214.345 660.700, 213.490 664.300, 213 666.500 C 212.510 668.700, 211.625 672.525, 211.034 675 C 210.442 677.475, 209.683 681.188, 209.347 683.250 C 208.104 690.885, 207.157 686.563, 206.608 670.750 C 205.826 648.203, 203.642 626.237, 201.464 619 C 199.644 612.955, 197.169 612, 180.500 610.912 C 173.350 610.445, 165.920 609.787, 163.989 609.450 C 161.266 608.975, 159.850 609.330, 157.687 611.032 C 155.310 612.901, 154.941 613.841, 155.198 617.363 C 155.631 623.289, 159.363 624.996, 171.884 624.998 C 177.045 624.999, 182.959 625.507, 185.025 626.126 C 188.771 627.248, 188.785 627.272, 189.454 633.876 C 190.920 648.334, 192.005 662.296, 192.961 679 C 194.456 705.126, 197.022 732.459, 198.525 738.273 C 199.347 741.454, 203.378 745, 206.170 745 C 208.621 745, 212.644 742.358, 213.496 740.190 C 213.861 739.261, 214.578 735.125, 215.089 731 C 215.600 726.875, 216.447 721.025, 216.970 718 C 218.487 709.234, 219.567 703.949, 223 688.500 C 223.550 686.025, 224.450 681.975, 225 679.500 C 228.104 665.532, 227.750 667.039, 230.934 654.250 C 231.447 652.188, 232.389 648.700, 233.027 646.500 C 233.664 644.300, 234.419 641.033, 234.704 639.241 C 234.988 637.448, 235.621 635.734, 236.110 635.432 C 236.600 635.129, 237 633.805, 237 632.488 C 237 631.171, 237.403 629.060, 237.896 627.797 C 238.389 626.534, 239.341 623.475, 240.012 621 C 240.683 618.525, 241.567 615.375, 241.976 614 C 243.032 610.455, 244.527 605.230, 245.981 600 C 246.669 597.525, 247.578 594.375, 248 593 C 248.422 591.625, 249.322 588.475, 250 586 C 251.901 579.055, 253.160 576, 254.121 576 C 254.605 576, 255 577.329, 255 578.953 C 255 580.577, 255.403 582.940, 255.896 584.203 C 256.389 585.466, 257.332 588.525, 257.993 591 C 258.654 593.475, 259.601 596.281, 260.097 597.236 C 260.594 598.191, 261 599.858, 261 600.939 C 261 602.021, 261.401 603.940, 261.891 605.203 C 262.381 606.466, 263.801 610.875, 265.047 615 C 266.292 619.125, 268.421 625.875, 269.776 630 C 275.055 646.063, 276.992 654.932, 278.948 672 C 279.421 676.125, 280.133 680.760, 280.530 682.299 C 281.491 686.025, 286.587 691, 289.442 691 C 292.839 691, 297 687.308, 297 684.293 C 297 682.885, 297.486 679.880, 298.079 677.616 C 298.673 675.352, 299.625 671.700, 300.195 669.500 C 300.765 667.300, 301.578 664.375, 302 663 C 302.422 661.625, 303.314 658.475, 303.981 656 C 304.649 653.525, 305.601 650.719, 306.097 649.764 C 306.594 648.809, 307 647.148, 307 646.073 C 307 644.998, 307.450 643.840, 308 643.500 C 308.550 643.160, 309 641.810, 309 640.500 C 309 639.190, 309.450 637.840, 310 637.500 C 310.550 637.160, 311 635.810, 311 634.500 C 311 633.190, 311.450 631.840, 312 631.500 C 312.550 631.160, 313 629.810, 313 628.500 C 313 627.190, 313.450 625.840, 314 625.500 C 314.550 625.160, 315 624.002, 315 622.927 C 315 621.852, 315.406 620.191, 315.903 619.236 C 316.399 618.281, 317.346 615.475, 318.007 613 C 319.767 606.409, 320.830 604, 321.979 604 C 322.540 604, 323 605.554, 323 607.453 C 323 609.352, 323.403 611.940, 323.896 613.203 C 325.273 616.733, 330.056 635.279, 333 648.500 C 333.490 650.700, 334.393 654.525, 335.007 657 C 335.621 659.475, 336.351 662.850, 336.630 664.500 C 336.908 666.150, 337.525 668.400, 338 669.500 C 338.475 670.600, 339.092 672.850, 339.370 674.500 C 339.649 676.150, 340.383 679.525, 341.001 682 C 341.619 684.475, 342.526 688.525, 343.017 691 C 343.507 693.475, 344.400 697.750, 345.001 700.500 C 345.602 703.250, 346.518 707.975, 347.037 711 C 349.936 727.894, 351.532 733.187, 354.503 735.750 C 358.401 739.113, 362.268 738.656, 367.135 734.259 C 371.363 730.439, 371.919 729.708, 380.351 716.880 C 383.020 712.821, 385.981 708.375, 386.933 707 C 388.877 704.189, 398.115 685.295, 400.060 680.149 L 401.326 676.798 408.413 677.401 C 424.874 678.801, 440.881 681.054, 462.750 685.051 C 465.912 685.629, 471.196 686.416, 474.490 686.801 C 479.060 687.334, 480.560 687.915, 480.814 689.250 C 480.997 690.212, 480.664 691, 480.073 691 C 479.483 691, 479 691.538, 479 692.196 C 479 692.854, 480.575 691.866, 482.500 690 C 484.425 688.134, 486 686.215, 486 685.734 C 486 685.253, 487.350 682.898, 489 680.500 C 490.650 678.102, 492 675.932, 492 675.679 C 492 675.426, 490.313 674.930, 488.250 674.576 C 486.188 674.223, 482.025 673.517, 479 673.009 C 471.451 671.739, 461.580 670.044, 455 668.887 C 439.633 666.186, 424.722 664.237, 410.500 663.071 C 404.450 662.575, 398.150 661.900, 396.500 661.571 C 394.717 661.215, 392.853 661.485, 391.904 662.236 C 389.734 663.954, 387 669.422, 387 672.044 C 387 675.152, 377.019 695.107, 370.551 704.930 C 367.498 709.566, 365 713.729, 365 714.180 C 365 715.677, 363.226 715.028, 362.457 713.250 C 362.041 712.288, 361.336 709.250, 360.890 706.500 C 359.096 695.441, 355.849 680.529, 351.091 661.500 C 349.174 653.829, 347.884 648.472, 347 644.500 C 346.510 642.300, 345.635 638.587, 345.055 636.250 C 343.404 629.600, 342.083 624.326, 341.046 620.250 C 338.888 611.770, 338.058 608.349, 337.469 605.500 C 337.128 603.850, 336.464 601.600, 335.993 600.500 C 335.522 599.400, 334.859 596.925, 334.521 595 C 334.182 593.075, 333.652 590.033, 333.342 588.241 C 333.032 586.448, 332.379 584.734, 331.890 584.432 C 331.400 584.129, 331 583.083, 331 582.106 C 331 578.522, 326.824 567.449, 324.831 565.750 C 321.923 563.271, 317.370 563.539, 314.553 566.356 C 312.629 568.280, 312.081 570.155, 311.562 576.606 C 311.212 580.948, 310.457 586.300, 309.884 588.500 C 308.363 594.340, 304.881 606.184, 304.005 608.500 C 303.589 609.600, 300.923 617.700, 298.080 626.500 C 291.836 645.830, 291.008 648, 289.879 648 C 289.395 648, 289 646.724, 289 645.165 C 289 643.606, 288.101 639.443, 287.001 635.915 C 285.902 632.387, 284.522 627.925, 283.935 626 C 283.348 624.075, 282.507 621.600, 282.065 620.500 C 280.590 616.824, 277.116 605.093, 273.773 592.500 C 273.189 590.300, 271.839 585.575, 270.772 582 C 269.705 578.425, 268.420 574.118, 267.916 572.429 C 267.412 570.740, 267 568.404, 267 567.238 C 267 566.072, 266.550 564.840, 266 564.500 C 265.450 564.160, 265 562.928, 265 561.762 C 265 559.510, 263.337 553.653, 261.877 550.764 C 261.395 549.809, 261 548.367, 261 547.561 C 261 544.780, 258.773 541.218, 256.343 540.110 C 252.592 538.401, 250.136 538.773, 247.455 541.455 M 10.272 553 C 10.272 555.475, 10.467 556.487, 10.706 555.250 C 10.944 554.013, 10.944 551.987, 10.706 550.750 C 10.467 549.513, 10.272 550.525, 10.272 553 M 495.250 669.598 C 494.012 670.880, 493 672.429, 493 673.041 C 493 673.653, 494.181 672.750, 495.624 671.034 C 498.743 667.328, 498.466 666.267, 495.250 669.598 M 200 812.500 C 201.866 814.425, 203.769 816, 204.230 816 C 204.690 816, 203.492 814.425, 201.567 812.500 C 199.642 810.575, 197.738 809, 197.337 809 C 196.936 809, 198.134 810.575, 200 812.500 M 218.345 826.829 C 219.255 827.835, 220 829.093, 220 829.626 C 220 830.771, 227.229 838, 228.374 838 C 228.808 838, 227.326 836.235, 225.082 834.078 C 222.837 831.922, 221 829.639, 221 829.007 C 221 827.733, 218.555 825, 217.416 825 C 217.017 825, 217.435 825.823, 218.345 826.829" stroke="none" fill="#fbf9f9" fill-rule="evenodd"/><path d="M 166.500 1.473 C 158.273 3.533, 142.312 9.880, 135.880 13.650 C 125.992 19.445, 109.529 34.100, 104.032 42 C 102.692 43.925, 101.328 45.725, 101 46 C 98.266 48.293, 86.682 72.014, 83.773 81.274 C 81.712 87.837, 81.506 90.428, 81.523 109.500 C 81.542 131.113, 81.877 133.610, 86.683 147.943 C 93.329 167.768, 106.251 195.010, 114.420 206.419 C 128.285 225.785, 143.886 236.581, 166 242.113 C 174.202 244.166, 177.823 244.483, 192.500 244.439 C 210.612 244.385, 216.336 243.363, 226 238.462 C 245.145 228.751, 271.469 201.548, 288.004 174.387 C 295.860 161.483, 307.937 135.044, 313.452 118.674 C 319.678 100.196, 321.308 92.397, 321.329 81 C 321.383 51.195, 306.232 29.708, 274.500 14.588 C 259.710 7.540, 247.387 3.367, 234.566 1.065 C 226.122 -0.451, 172.911 -0.132, 166.500 1.473 M 451.250 200.678 C 448.913 200.918, 447 201.539, 447 202.057 C 447 202.576, 445.452 203, 443.559 203 C 441.666 203, 439.840 203.450, 439.500 204 C 439.160 204.550, 436.209 205, 432.941 205 C 429.647 205, 427 205.446, 427 206 C 427 206.550, 426.100 207, 425 207 C 423.900 207, 423 207.450, 423 208 C 423 208.550, 422.100 209, 421 209 C 419.900 209, 419 209.450, 419 210 C 419 210.550, 418.438 211.005, 417.750 211.011 C 417.063 211.017, 414.685 212.704, 412.467 214.761 C 410.248 216.817, 407.579 218.980, 406.534 219.567 C 405.489 220.154, 404.154 221.493, 403.567 222.543 C 402.980 223.592, 400.074 227.035, 397.109 230.193 C 390.276 237.471, 389.309 239.121, 384.047 252.500 C 380.197 262.289, 379.713 264.436, 379.644 272.003 C 379.459 292.493, 391.932 307.314, 415.734 314.885 C 428.674 319.001, 437.651 320.182, 446.500 318.933 C 461.662 316.792, 474.248 310.612, 485.057 300 C 504.229 281.179, 508.351 260.759, 498.863 231.613 C 495.566 221.485, 491.086 214.754, 484.215 209.603 C 481.622 207.658, 478.150 204.964, 476.500 203.617 C 473.943 201.528, 472.171 201.098, 464.500 200.704 C 459.550 200.449, 453.587 200.438, 451.250 200.678 M 157 265.968 C 155.625 266.426, 152.594 266.845, 150.264 266.900 C 147.935 266.955, 144.110 267.458, 141.764 268.017 C 97.901 278.483, 92.629 281.437, 71.925 307.154 C 67.343 312.844, 63.348 317.725, 63.047 318 C 61.381 319.522, 55.189 328.222, 46.315 341.509 C 36.353 356.424, 29.367 369.615, 25.133 381.500 C 24.008 384.661, 18.434 406.646, 17.024 413.485 C 16.569 415.693, 15.235 421.775, 14.059 427 C 7.295 457.058, 5.778 517.761, 10.884 554 C 12.279 563.897, 13.838 570.498, 17.500 582 C 19.338 587.775, 22.083 596.550, 23.598 601.500 C 25.113 606.450, 26.687 611.175, 27.095 612 C 28.760 615.367, 32 623.019, 32 623.584 C 32 624.632, 42.771 645.756, 47.146 653.289 C 57.649 671.372, 68.087 685.156, 88.918 708.454 C 111.368 733.564, 166.227 787, 169.555 787 C 170.350 787, 171 787.450, 171 788 C 171 788.550, 171.673 789, 172.495 789 C 173.317 789, 176.288 791.250, 179.096 794 C 181.905 796.750, 184.596 799, 185.078 799 C 185.559 799, 188.312 801.250, 191.195 804 C 194.078 806.750, 196.787 809, 197.214 809 C 197.641 809, 200.288 811.250, 203.096 814 C 205.905 816.750, 208.611 819, 209.110 819 C 209.610 819, 211.431 820.350, 213.157 822 C 214.884 823.650, 216.712 825, 217.220 825 C 218.495 825, 221 827.620, 221 828.955 C 221 830.353, 229.600 839, 230.991 839 C 231.565 839, 237.539 844.513, 244.267 851.250 C 258.433 865.436, 270.381 875.310, 275.372 876.958 C 281.157 878.867, 285.796 876.934, 294.166 869.126 C 298.200 865.363, 303.365 861.433, 305.645 860.392 C 313.804 856.668, 329.715 841.275, 351.013 816.500 C 366.386 798.618, 380.832 784.278, 391.500 776.311 C 397 772.204, 402.175 768.310, 403 767.658 C 403.825 767.005, 406.075 765.375, 408 764.034 C 409.925 762.693, 411.725 761.328, 412 761 C 412.275 760.672, 414.075 759.322, 416 758 C 417.925 756.678, 419.725 755.350, 420 755.048 C 420.275 754.747, 423.425 752.038, 427 749.029 C 430.575 746.020, 434.175 742.857, 435 742 C 435.825 741.143, 439.413 737.980, 442.973 734.971 C 453.141 726.377, 460.462 718.736, 463.086 713.979 C 464.414 711.573, 467.637 707.345, 470.250 704.583 C 472.862 701.822, 475 699.192, 475 698.740 C 475 698.287, 475.900 696.950, 477 695.770 C 478.100 694.589, 479 693.033, 479 692.311 C 479 691.590, 479.483 691, 480.073 691 C 480.664 691, 480.997 690.212, 480.814 689.250 C 480.560 687.915, 479.060 687.334, 474.490 686.801 C 471.196 686.416, 465.912 685.629, 462.750 685.051 C 440.881 681.054, 424.874 678.801, 408.413 677.401 L 401.326 676.798 400.060 680.149 C 398.115 685.295, 388.877 704.189, 386.933 707 C 385.981 708.375, 383.020 712.821, 380.351 716.880 C 371.919 729.708, 371.363 730.439, 367.135 734.259 C 362.268 738.656, 358.401 739.113, 354.503 735.750 C 351.532 733.187, 349.936 727.894, 347.037 711 C 346.518 707.975, 345.602 703.250, 345.001 700.500 C 344.400 697.750, 343.507 693.475, 343.017 691 C 342.526 688.525, 341.619 684.475, 341.001 682 C 340.383 679.525, 339.649 676.150, 339.370 674.500 C 339.092 672.850, 338.475 670.600, 338 669.500 C 337.525 668.400, 336.908 666.150, 336.630 664.500 C 336.351 662.850, 335.621 659.475, 335.007 657 C 334.393 654.525, 333.490 650.700, 333 648.500 C 330.056 635.279, 325.273 616.733, 323.896 613.203 C 323.403 611.940, 323 609.352, 323 607.453 C 323 605.554, 322.540 604, 321.979 604 C 320.830 604, 319.767 606.409, 318.007 613 C 317.346 615.475, 316.399 618.281, 315.903 619.236 C 315.406 620.191, 315 621.852, 315 622.927 C 315 624.002, 314.550 625.160, 314 625.500 C 313.450 625.840, 313 627.190, 313 628.500 C 313 629.810, 312.550 631.160, 312 631.500 C 311.450 631.840, 311 633.190, 311 634.500 C 311 635.810, 310.550 637.160, 310 637.500 C 309.450 637.840, 309 639.190, 309 640.500 C 309 641.810, 308.550 643.160, 308 643.500 C 307.450 643.840, 307 644.998, 307 646.073 C 307 647.148, 306.594 648.809, 306.097 649.764 C 305.601 650.719, 304.649 653.525, 303.981 656 C 303.314 658.475, 302.422 661.625, 302 663 C 301.578 664.375, 300.765 667.300, 300.195 669.500 C 299.625 671.700, 298.673 675.352, 298.079 677.616 C 297.486 679.880, 297 682.885, 297 684.293 C 297 687.308, 292.839 691, 289.442 691 C 286.587 691, 281.491 686.025, 280.530 682.299 C 280.133 680.760, 279.421 676.125, 278.948 672 C 276.992 654.932, 275.055 646.063, 269.776 630 C 268.421 625.875, 266.292 619.125, 265.047 615 C 263.801 610.875, 262.381 606.466, 261.891 605.203 C 261.401 603.940, 261 602.021, 261 600.939 C 261 599.858, 260.594 598.191, 260.097 597.236 C 259.601 596.281, 258.654 593.475, 257.993 591 C 257.332 588.525, 256.389 585.466, 255.896 584.203 C 255.403 582.940, 255 580.577, 255 578.953 C 255 577.329, 254.605 576, 254.121 576 C 253.160 576, 251.901 579.055, 250 586 C 249.322 588.475, 248.422 591.625, 248 593 C 247.578 594.375, 246.678 597.525, 246 600 C 245.322 602.475, 244.422 605.625, 244 607 C 243.578 608.375, 242.669 611.525, 241.981 614 C 239.403 623.270, 238.722 625.560, 237.872 627.797 C 237.392 629.060, 237 631.171, 237 632.488 C 237 633.805, 236.600 635.129, 236.110 635.432 C 235.621 635.734, 234.988 637.448, 234.704 639.241 C 234.419 641.033, 233.664 644.300, 233.027 646.500 C 232.389 648.700, 231.447 652.188, 230.934 654.250 C 228.328 664.716, 227.818 666.826, 226.945 670.750 C 226.425 673.087, 225.550 677.025, 225 679.500 C 224.450 681.975, 223.550 686.025, 223 688.500 C 219.567 703.949, 218.487 709.234, 216.970 718 C 216.447 721.025, 215.600 726.875, 215.089 731 C 214.578 735.125, 213.861 739.261, 213.496 740.190 C 212.644 742.358, 208.621 745, 206.170 745 C 203.378 745, 199.347 741.454, 198.525 738.273 C 197.022 732.459, 194.456 705.126, 192.961 679 C 192.005 662.296, 190.920 648.334, 189.454 633.876 C 188.785 627.272, 188.771 627.248, 185.025 626.126 C 182.959 625.507, 177.045 624.999, 171.884 624.998 C 159.363 624.996, 155.631 623.289, 155.198 617.363 C 154.941 613.841, 155.310 612.901, 157.687 611.032 C 159.850 609.330, 161.266 608.975, 163.989 609.450 C 165.920 609.787, 173.350 610.445, 180.500 610.912 C 197.169 612, 199.644 612.955, 201.464 619 C 203.642 626.237, 205.826 648.203, 206.608 670.750 C 207.157 686.563, 208.104 690.885, 209.347 683.250 C 209.683 681.188, 210.442 677.475, 211.034 675 C 211.625 672.525, 212.510 668.700, 213 666.500 C 213.490 664.300, 214.345 660.700, 214.901 658.500 C 215.456 656.300, 216.190 653.150, 216.531 651.500 C 216.872 649.850, 217.533 647.600, 218 646.500 C 218.467 645.400, 219.077 643.375, 219.355 642 C 219.633 640.625, 220.372 637.700, 220.997 635.500 C 221.622 633.300, 222.523 629.925, 223 628 C 223.809 624.736, 224.253 623.125, 227.070 613.250 C 227.658 611.188, 228.367 608.375, 228.645 607 C 228.923 605.625, 229.504 603.600, 229.937 602.500 C 231.578 598.325, 233 593.295, 233 591.665 C 233 590.735, 233.406 589.191, 233.903 588.236 C 234.399 587.281, 235.351 584.475, 236.019 582 C 236.686 579.525, 237.578 576.375, 238 575 C 238.422 573.625, 239.331 570.475, 240.019 568 C 242.597 558.730, 243.278 556.440, 244.128 554.203 C 244.608 552.940, 245 550.107, 245 547.907 C 245 543.419, 248.427 539, 251.907 539 C 256.687 539, 261 543.060, 261 547.561 C 261 548.367, 261.395 549.809, 261.877 550.764 C 263.337 553.653, 265 559.510, 265 561.762 C 265 562.928, 265.450 564.160, 266 564.500 C 266.550 564.840, 267 566.072, 267 567.238 C 267 568.404, 267.412 570.740, 267.916 572.429 C 268.420 574.118, 269.705 578.425, 270.772 582 C 272.657 588.316, 274.039 593.257, 276.227 601.500 C 277.680 606.975, 281.087 618.063, 282.065 620.500 C 282.507 621.600, 283.348 624.075, 283.935 626 C 284.522 627.925, 285.902 632.387, 287.001 635.915 C 288.101 639.443, 289 643.606, 289 645.165 C 289 646.724, 289.395 648, 289.879 648 C 291.008 648, 291.836 645.830, 298.080 626.500 C 300.923 617.700, 303.589 609.600, 304.005 608.500 C 304.881 606.184, 308.363 594.340, 309.884 588.500 C 310.457 586.300, 311.212 580.948, 311.562 576.606 C 312.081 570.155, 312.629 568.280, 314.553 566.356 C 317.370 563.539, 321.923 563.271, 324.831 565.750 C 326.824 567.449, 331 578.522, 331 582.106 C 331 583.083, 331.400 584.129, 331.890 584.432 C 332.379 584.734, 333.032 586.448, 333.342 588.241 C 333.652 590.033, 334.182 593.075, 334.521 595 C 334.859 596.925, 335.522 599.400, 335.993 600.500 C 336.464 601.600, 337.128 603.850, 337.469 605.500 C 337.810 607.150, 338.499 610.075, 338.999 612 C 339.499 613.925, 340.400 617.525, 341 620 C 341.600 622.475, 342.500 626.075, 343 628 C 344.350 633.199, 345.995 639.984, 347 644.500 C 347.490 646.700, 348.345 650.300, 348.900 652.500 C 351.084 661.161, 351.947 664.697, 353.049 669.500 C 353.680 672.250, 354.627 676.300, 355.153 678.500 C 357.488 688.267, 359.619 698.665, 360.890 706.500 C 361.336 709.250, 362.041 712.288, 362.457 713.250 C 363.226 715.028, 365 715.677, 365 714.180 C 365 713.729, 367.498 709.566, 370.551 704.930 C 377.019 695.107, 387 675.152, 387 672.044 C 387 669.422, 389.734 663.954, 391.904 662.236 C 392.853 661.485, 394.717 661.215, 396.500 661.571 C 398.150 661.900, 404.450 662.575, 410.500 663.071 C 427.710 664.482, 439.590 666.142, 468 671.107 C 474.916 672.315, 484.366 673.884, 489.250 674.634 C 492.261 675.097, 493 674.895, 493 673.610 C 493 672.730, 495.250 669.712, 498 666.904 C 500.750 664.095, 503 661.396, 503 660.906 C 503 660.416, 503.882 658.999, 504.960 657.758 C 516.964 643.934, 541.254 587.017, 547.533 558 C 550.601 543.821, 550.392 512.227, 547.083 490 C 546.008 482.776, 539.731 459.442, 535.069 445.342 C 529.193 427.566, 519.841 407.976, 513.770 400.726 C 508.966 394.988, 497.354 385.336, 490.129 381.076 C 475.023 372.169, 448.736 360.161, 434.500 355.664 C 420.556 351.259, 403.241 350.018, 395.790 352.889 C 394.530 353.374, 389.675 354.772, 385 355.995 C 373.024 359.128, 363.092 364.355, 349.371 374.746 C 335.450 385.289, 316.703 401.252, 309.278 408.885 C 305.712 412.551, 303.881 413.827, 303.539 412.885 C 303.059 411.559, 302.429 408.204, 298.018 383.500 C 293.208 356.557, 289.090 344.415, 277.991 324.442 C 272.347 314.285, 252.968 294.096, 241.356 286.275 C 234.060 281.360, 215.968 272.533, 209 270.489 C 207.625 270.085, 206.050 269.400, 205.500 268.966 C 201.979 266.188, 163.487 263.809, 157 265.968" stroke="none" fill="#fb0404" fill-rule="evenodd"/></svg>