<svg xmlns="http://www.w3.org/2000/svg" width="1790" height="894" viewBox="0 0 1790 894" version="1.1"><path d="M 80.385 114 C 80.385 120.875, 80.545 123.688, 80.740 120.250 C 80.936 116.813, 80.936 111.188, 80.740 107.750 C 80.545 104.313, 80.385 107.125, 80.385 114 M 480.090 210.250 C 483.002 212.588, 487.145 216.256, 489.296 218.401 C 493.187 222.282, 493.199 222.286, 491.578 219.151 C 490.682 217.418, 489.580 216, 489.130 216 C 488.680 216, 485.740 213.750, 482.597 211 C 479.455 208.250, 476.414 206, 475.839 206 C 475.265 206, 477.177 207.912, 480.090 210.250 M 168.296 268.744 C 172.583 268.932, 179.333 268.931, 183.296 268.742 C 187.258 268.552, 183.750 268.399, 175.500 268.400 C 167.250 268.401, 164.008 268.556, 168.296 268.744 M 8.397 475 C 8.397 482.975, 8.553 486.238, 8.743 482.250 C 8.932 478.262, 8.932 471.738, 8.743 467.750 C 8.553 463.762, 8.397 467.025, 8.397 475 M 6.392 508 C 6.392 515.425, 6.549 518.462, 6.742 514.750 C 6.934 511.038, 6.934 504.962, 6.742 501.250 C 6.549 497.538, 6.392 500.575, 6.392 508 M 1428.998 526.250 C 1428.999 526.663, 1436.763 526.915, 1446.250 526.811 C 1463.843 526.618, 1461.804 526.229, 1440.748 525.761 C 1434.284 525.618, 1428.997 525.837, 1428.998 526.250 M 1498.417 527.355 C 1498.131 528.101, 1498.059 531.588, 1498.256 535.105 L 1498.615 541.500 1498.807 534.264 L 1499 527.028 1530.250 526.749 L 1561.500 526.470 1530.219 526.235 C 1504.657 526.043, 1498.842 526.248, 1498.417 527.355 M 1631.811 526.748 C 1639.681 526.917, 1652.281 526.917, 1659.811 526.747 C 1667.340 526.578, 1660.900 526.439, 1645.500 526.440 C 1630.100 526.440, 1623.940 526.579, 1631.811 526.748 M 8.370 537 C 8.370 542.775, 8.535 545.138, 8.737 542.250 C 8.939 539.362, 8.939 534.638, 8.737 531.750 C 8.535 528.862, 8.370 531.225, 8.370 537 M 247.455 545.455 C 245.667 547.242, 245 548.996, 245 551.907 C 245 554.107, 244.597 556.940, 244.104 558.203 C 243.611 559.466, 242.651 562.525, 241.969 565 C 240.603 569.960, 239.120 575.162, 237.976 579 C 237.567 580.375, 236.686 583.525, 236.019 586 C 235.351 588.475, 234.399 591.281, 233.903 592.236 C 233.406 593.191, 233 594.735, 233 595.665 C 233 597.295, 231.578 602.325, 229.937 606.500 C 229.504 607.600, 228.923 609.625, 228.645 611 C 228.168 613.359, 227.213 616.905, 224.877 625 C 224.322 626.925, 223.477 630.075, 223 632 C 222.523 633.925, 221.622 637.300, 220.997 639.500 C 220.372 641.700, 219.633 644.625, 219.355 646 C 219.077 647.375, 218.467 649.400, 218 650.500 C 217.533 651.600, 216.872 653.850, 216.531 655.500 C 216.190 657.150, 215.456 660.300, 214.901 662.500 C 214.345 664.700, 213.490 668.300, 213 670.500 C 212.510 672.700, 211.625 676.525, 211.034 679 C 210.442 681.475, 209.683 685.188, 209.347 687.250 C 208.104 694.885, 207.157 690.563, 206.608 674.750 C 205.826 652.203, 203.642 630.237, 201.464 623 C 199.644 616.955, 197.169 616, 180.500 614.912 C 173.350 614.445, 165.920 613.787, 163.989 613.450 C 161.266 612.975, 159.850 613.330, 157.687 615.032 C 155.310 616.901, 154.941 617.841, 155.198 621.363 C 155.631 627.289, 159.363 628.996, 171.884 628.998 C 177.045 628.999, 182.959 629.507, 185.025 630.126 C 188.771 631.248, 188.785 631.272, 189.454 637.876 C 190.920 652.334, 192.005 666.296, 192.961 683 C 194.456 709.126, 197.022 736.459, 198.525 742.273 C 199.347 745.454, 203.378 749, 206.170 749 C 208.621 749, 212.644 746.358, 213.496 744.190 C 213.861 743.261, 214.578 739.125, 215.089 735 C 215.600 730.875, 216.447 725.025, 216.970 722 C 218.487 713.234, 219.567 707.949, 223 692.500 C 223.550 690.025, 224.450 685.975, 225 683.500 C 228.104 669.532, 227.750 671.039, 230.934 658.250 C 231.447 656.188, 232.389 652.700, 233.027 650.500 C 233.664 648.300, 234.419 645.033, 234.704 643.241 C 234.988 641.448, 235.621 639.734, 236.110 639.432 C 236.600 639.129, 237 637.805, 237 636.488 C 237 635.171, 237.403 633.060, 237.896 631.797 C 238.389 630.534, 239.341 627.475, 240.012 625 C 240.683 622.525, 241.567 619.375, 241.976 618 C 243.032 614.455, 244.527 609.230, 245.981 604 C 246.669 601.525, 247.578 598.375, 248 597 C 248.422 595.625, 249.322 592.475, 250 590 C 251.901 583.055, 253.160 580, 254.121 580 C 254.605 580, 255 581.329, 255 582.953 C 255 584.577, 255.403 586.940, 255.896 588.203 C 256.389 589.466, 257.332 592.525, 257.993 595 C 258.654 597.475, 259.601 600.281, 260.097 601.236 C 260.594 602.191, 261 603.858, 261 604.939 C 261 606.021, 261.401 607.940, 261.891 609.203 C 262.381 610.466, 263.801 614.875, 265.047 619 C 266.292 623.125, 268.421 629.875, 269.776 634 C 275.055 650.063, 276.992 658.932, 278.948 676 C 279.421 680.125, 280.133 684.760, 280.530 686.299 C 281.491 690.025, 286.587 695, 289.442 695 C 292.839 695, 297 691.308, 297 688.293 C 297 686.885, 297.486 683.880, 298.079 681.616 C 298.673 679.352, 299.625 675.700, 300.195 673.500 C 300.765 671.300, 301.578 668.375, 302 667 C 302.422 665.625, 303.314 662.475, 303.981 660 C 304.649 657.525, 305.601 654.719, 306.097 653.764 C 306.594 652.809, 307 651.148, 307 650.073 C 307 648.998, 307.450 647.840, 308 647.500 C 308.550 647.160, 309 645.810, 309 644.500 C 309 643.190, 309.450 641.840, 310 641.500 C 310.550 641.160, 311 639.810, 311 638.500 C 311 637.190, 311.450 635.840, 312 635.500 C 312.550 635.160, 313 633.810, 313 632.500 C 313 631.190, 313.450 629.840, 314 629.500 C 314.550 629.160, 315 628.002, 315 626.927 C 315 625.852, 315.406 624.191, 315.903 623.236 C 316.399 622.281, 317.346 619.475, 318.007 617 C 319.767 610.409, 320.830 608, 321.979 608 C 322.540 608, 323 609.554, 323 611.453 C 323 613.352, 323.403 615.940, 323.896 617.203 C 325.273 620.733, 330.056 639.279, 333 652.500 C 333.490 654.700, 334.393 658.525, 335.007 661 C 335.621 663.475, 336.351 666.850, 336.630 668.500 C 336.908 670.150, 337.525 672.400, 338 673.500 C 338.475 674.600, 339.092 676.850, 339.370 678.500 C 339.649 680.150, 340.383 683.525, 341.001 686 C 341.619 688.475, 342.526 692.525, 343.017 695 C 343.507 697.475, 344.400 701.750, 345.001 704.500 C 345.602 707.250, 346.518 711.975, 347.037 715 C 349.936 731.894, 351.532 737.187, 354.503 739.750 C 358.401 743.113, 362.268 742.656, 367.135 738.259 C 371.363 734.439, 371.919 733.708, 380.351 720.880 C 383.020 716.821, 385.981 712.375, 386.933 711 C 388.877 708.189, 398.115 689.295, 400.060 684.149 L 401.326 680.798 408.413 681.401 C 424.874 682.801, 440.881 685.054, 462.750 689.051 C 465.912 689.629, 471.196 690.416, 474.490 690.801 C 479.060 691.334, 480.560 691.915, 480.814 693.250 C 480.997 694.212, 480.664 695, 480.073 695 C 479.483 695, 479 695.538, 479 696.196 C 479 696.854, 480.575 695.866, 482.500 694 C 484.425 692.134, 486 690.215, 486 689.734 C 486 689.253, 487.350 686.898, 489 684.500 C 490.650 682.102, 492 679.932, 492 679.679 C 492 679.426, 490.313 678.930, 488.250 678.576 C 486.188 678.223, 482.025 677.517, 479 677.009 C 471.451 675.739, 461.580 674.044, 455 672.887 C 439.633 670.186, 424.722 668.237, 410.500 667.071 C 404.450 666.575, 398.150 665.900, 396.500 665.571 C 394.717 665.215, 392.853 665.485, 391.904 666.236 C 389.734 667.954, 387 673.422, 387 676.044 C 387 679.152, 377.019 699.107, 370.551 708.930 C 367.498 713.566, 365 717.729, 365 718.180 C 365 719.677, 363.226 719.028, 362.457 717.250 C 362.041 716.288, 361.336 713.250, 360.890 710.500 C 359.096 699.441, 355.849 684.529, 351.091 665.500 C 349.174 657.829, 347.884 652.472, 347 648.500 C 346.510 646.300, 345.635 642.587, 345.055 640.250 C 343.404 633.600, 342.083 628.326, 341.046 624.250 C 338.888 615.770, 338.058 612.349, 337.469 609.500 C 337.128 607.850, 336.464 605.600, 335.993 604.500 C 335.522 603.400, 334.859 600.925, 334.521 599 C 334.182 597.075, 333.652 594.033, 333.342 592.241 C 333.032 590.448, 332.379 588.734, 331.890 588.432 C 331.400 588.129, 331 587.083, 331 586.106 C 331 582.522, 326.824 571.449, 324.831 569.750 C 321.923 567.271, 317.370 567.539, 314.553 570.356 C 312.629 572.280, 312.081 574.155, 311.562 580.606 C 311.212 584.948, 310.457 590.300, 309.884 592.500 C 308.363 598.340, 304.881 610.184, 304.005 612.500 C 303.589 613.600, 300.923 621.700, 298.080 630.500 C 291.836 649.830, 291.008 652, 289.879 652 C 289.395 652, 289 650.724, 289 649.165 C 289 647.606, 288.101 643.443, 287.001 639.915 C 285.902 636.387, 284.522 631.925, 283.935 630 C 283.348 628.075, 282.507 625.600, 282.065 624.500 C 280.590 620.824, 277.116 609.093, 273.773 596.500 C 273.189 594.300, 271.839 589.575, 270.772 586 C 269.705 582.425, 268.420 578.118, 267.916 576.429 C 267.412 574.740, 267 572.404, 267 571.238 C 267 570.072, 266.550 568.840, 266 568.500 C 265.450 568.160, 265 566.928, 265 565.762 C 265 563.510, 263.337 557.653, 261.877 554.764 C 261.395 553.809, 261 552.367, 261 551.561 C 261 548.780, 258.773 545.218, 256.343 544.110 C 252.592 542.401, 250.136 542.773, 247.455 545.455 M 1636.460 597 C 1636.460 621.475, 1636.590 631.488, 1636.749 619.250 C 1636.908 607.013, 1636.908 586.988, 1636.749 574.750 C 1636.590 562.513, 1636.460 572.525, 1636.460 597 M 1133.455 602 C 1133.455 623.725, 1133.587 632.612, 1133.749 621.750 C 1133.910 610.888, 1133.910 593.112, 1133.749 582.250 C 1133.587 571.388, 1133.455 580.275, 1133.455 602 M 1720.486 620.250 L 1720.500 669.500 1751 669.500 L 1781.500 669.500 1781.576 662 L 1781.651 654.500 1781.282 661.750 L 1780.912 669 1750.966 669 L 1721.019 669 1720.745 620 L 1720.471 571 1720.486 620.250 M 1250.292 584.742 C 1254.027 584.935, 1259.877 584.934, 1263.292 584.739 C 1266.706 584.545, 1263.650 584.387, 1256.500 584.389 C 1249.350 584.390, 1246.556 584.550, 1250.292 584.742 M 1315.435 620 C 1315.435 634.025, 1315.575 639.763, 1315.747 632.750 C 1315.919 625.737, 1315.919 614.263, 1315.747 607.250 C 1315.575 600.237, 1315.435 605.975, 1315.435 620 M 1192.360 629 C 1192.360 634.225, 1192.529 636.362, 1192.735 633.750 C 1192.941 631.138, 1192.941 626.862, 1192.735 624.250 C 1192.529 621.638, 1192.360 623.775, 1192.360 629 M 986.424 662 L 986.500 669.500 1028 669.500 L 1069.500 669.500 1069.566 662.500 L 1069.631 655.500 1069.272 662.250 L 1068.912 669 1028 669 L 987.088 669 986.718 661.750 L 986.349 654.500 986.424 662 M 1498.424 662 L 1498.500 669.500 1541 669.500 L 1583.500 669.500 1583.593 666.500 C 1583.681 663.670, 1583.663 663.655, 1583.280 666.250 L 1582.873 669 1540.980 669 L 1499.088 669 1498.718 661.750 L 1498.349 654.500 1498.424 662 M 1280.257 668 C 1280.606 669.282, 1284.354 669.504, 1306.083 669.527 L 1331.500 669.554 1306.548 669.259 C 1288.204 669.042, 1281.364 668.638, 1280.722 667.732 C 1280.086 666.835, 1279.959 666.908, 1280.257 668 M 1107.250 669.748 C 1115.362 669.916, 1128.638 669.916, 1136.750 669.748 C 1144.862 669.580, 1138.225 669.442, 1122 669.442 C 1105.775 669.442, 1099.138 669.580, 1107.250 669.748 M 1636.317 669.749 C 1647.766 669.910, 1666.216 669.909, 1677.317 669.749 C 1688.418 669.588, 1679.050 669.456, 1656.500 669.457 C 1633.950 669.457, 1624.868 669.589, 1636.317 669.749 M 218.345 830.829 C 219.255 831.835, 220 833.093, 220 833.626 C 220 834.771, 227.229 842, 228.374 842 C 228.808 842, 227.326 840.235, 225.082 838.078 C 222.837 835.922, 221 833.639, 221 833.007 C 221 831.733, 218.555 829, 217.416 829 C 217.017 829, 217.435 829.823, 218.345 830.829" stroke="none" fill="#fcf9fa" fill-rule="evenodd"/><path d="M 180 2.666 C 166.702 4.758, 145.703 11.893, 135.852 17.666 C 125.991 23.445, 109.521 38.111, 104.032 46 C 102.692 47.925, 101.328 49.725, 101 50 C 98.266 52.293, 86.682 76.014, 83.773 85.274 C 81.712 91.837, 81.506 94.428, 81.523 113.500 C 81.542 135.113, 81.877 137.610, 86.683 151.943 C 93.329 171.768, 106.251 199.010, 114.420 210.419 C 128.285 229.785, 143.886 240.581, 166 246.113 C 174.202 248.166, 177.823 248.483, 192.500 248.439 C 210.612 248.385, 216.336 247.363, 226 242.462 C 245.145 232.751, 271.469 205.548, 288.004 178.387 C 295.860 165.483, 307.937 139.044, 313.452 122.674 C 319.678 104.196, 321.308 96.397, 321.329 85 C 321.382 55.578, 306.401 34.004, 275.500 19.004 C 259.792 11.379, 250.287 8.261, 231.156 4.455 C 220.535 2.343, 216.276 2.019, 200.656 2.136 C 190.670 2.211, 181.375 2.449, 180 2.666 M 451.250 204.678 C 448.913 204.918, 447 205.539, 447 206.057 C 447 206.576, 445.452 207, 443.559 207 C 441.666 207, 439.840 207.450, 439.500 208 C 439.160 208.550, 436.209 209, 432.941 209 C 429.647 209, 427 209.446, 427 210 C 427 210.550, 426.100 211, 425 211 C 423.900 211, 423 211.450, 423 212 C 423 212.550, 422.100 213, 421 213 C 419.900 213, 419 213.450, 419 214 C 419 214.550, 418.438 215.005, 417.750 215.011 C 417.063 215.017, 414.685 216.704, 412.467 218.761 C 410.248 220.817, 407.579 222.980, 406.534 223.567 C 405.489 224.154, 404.154 225.493, 403.567 226.543 C 402.980 227.592, 400.074 231.035, 397.109 234.193 C 390.276 241.471, 389.309 243.121, 384.047 256.500 C 380.197 266.289, 379.713 268.436, 379.644 276.003 C 379.459 296.493, 391.932 311.314, 415.734 318.885 C 428.674 323.001, 437.651 324.182, 446.500 322.933 C 461.662 320.792, 474.248 314.612, 485.057 304 C 504.229 285.179, 508.351 264.759, 498.863 235.613 C 495.566 225.485, 491.086 218.754, 484.215 213.603 C 481.622 211.658, 478.150 208.964, 476.500 207.617 C 473.943 205.528, 472.171 205.098, 464.500 204.704 C 459.550 204.449, 453.587 204.438, 451.250 204.678 M 157 269.968 C 155.625 270.426, 152.594 270.845, 150.264 270.900 C 147.935 270.955, 144.110 271.458, 141.764 272.017 C 97.901 282.483, 92.629 285.437, 71.925 311.154 C 67.343 316.844, 63.348 321.725, 63.047 322 C 61.381 323.522, 55.189 332.222, 46.315 345.509 C 36.353 360.424, 29.367 373.615, 25.133 385.500 C 24.008 388.661, 18.434 410.646, 17.024 417.485 C 16.569 419.693, 15.235 425.775, 14.059 431 C 7.295 461.058, 5.778 521.761, 10.884 558 C 12.279 567.897, 13.838 574.498, 17.500 586 C 19.338 591.775, 22.083 600.550, 23.598 605.500 C 25.113 610.450, 26.687 615.175, 27.095 616 C 28.760 619.367, 32 627.019, 32 627.584 C 32 628.632, 42.771 649.756, 47.146 657.289 C 57.649 675.372, 68.087 689.156, 88.918 712.454 C 111.368 737.564, 166.227 791, 169.555 791 C 170.350 791, 171 791.450, 171 792 C 171 792.550, 171.673 793, 172.495 793 C 173.317 793, 176.288 795.250, 179.096 798 C 181.905 800.750, 184.596 803, 185.078 803 C 185.559 803, 188.312 805.250, 191.195 808 C 194.078 810.750, 196.787 813, 197.214 813 C 197.641 813, 200.288 815.250, 203.096 818 C 205.905 820.750, 208.611 823, 209.110 823 C 209.610 823, 211.431 824.350, 213.157 826 C 214.884 827.650, 216.712 829, 217.220 829 C 218.495 829, 221 831.620, 221 832.955 C 221 834.353, 229.600 843, 230.991 843 C 231.565 843, 237.539 848.513, 244.267 855.250 C 258.433 869.436, 270.381 879.310, 275.372 880.958 C 281.157 882.867, 285.796 880.934, 294.166 873.126 C 298.200 869.363, 303.365 865.433, 305.645 864.392 C 313.804 860.668, 329.715 845.275, 351.013 820.500 C 366.386 802.618, 380.832 788.278, 391.500 780.311 C 397 776.204, 402.175 772.310, 403 771.658 C 403.825 771.005, 406.075 769.375, 408 768.034 C 409.925 766.693, 411.725 765.328, 412 765 C 412.275 764.672, 414.075 763.322, 416 762 C 417.925 760.678, 419.725 759.350, 420 759.048 C 420.275 758.747, 423.425 756.038, 427 753.029 C 430.575 750.020, 434.175 746.857, 435 746 C 435.825 745.143, 439.413 741.980, 442.973 738.971 C 453.141 730.377, 460.462 722.736, 463.086 717.979 C 464.414 715.573, 467.637 711.345, 470.250 708.583 C 472.862 705.822, 475 703.192, 475 702.740 C 475 702.287, 475.900 700.950, 477 699.770 C 478.100 698.589, 479 697.033, 479 696.311 C 479 695.590, 479.483 695, 480.073 695 C 480.664 695, 480.997 694.212, 480.814 693.250 C 480.560 691.915, 479.060 691.334, 474.490 690.801 C 471.196 690.416, 465.912 689.629, 462.750 689.051 C 440.881 685.054, 424.874 682.801, 408.413 681.401 L 401.326 680.798 400.060 684.149 C 398.115 689.295, 388.877 708.189, 386.933 711 C 385.981 712.375, 383.020 716.821, 380.351 720.880 C 371.919 733.708, 371.363 734.439, 367.135 738.259 C 362.268 742.656, 358.401 743.113, 354.503 739.750 C 351.532 737.187, 349.936 731.894, 347.037 715 C 346.518 711.975, 345.602 707.250, 345.001 704.500 C 344.400 701.750, 343.507 697.475, 343.017 695 C 342.526 692.525, 341.619 688.475, 341.001 686 C 340.383 683.525, 339.649 680.150, 339.370 678.500 C 339.092 676.850, 338.475 674.600, 338 673.500 C 337.525 672.400, 336.908 670.150, 336.630 668.500 C 336.351 666.850, 335.621 663.475, 335.007 661 C 334.393 658.525, 333.490 654.700, 333 652.500 C 330.056 639.279, 325.273 620.733, 323.896 617.203 C 323.403 615.940, 323 613.352, 323 611.453 C 323 609.554, 322.540 608, 321.979 608 C 320.830 608, 319.767 610.409, 318.007 617 C 317.346 619.475, 316.399 622.281, 315.903 623.236 C 315.406 624.191, 315 625.852, 315 626.927 C 315 628.002, 314.550 629.160, 314 629.500 C 313.450 629.840, 313 631.190, 313 632.500 C 313 633.810, 312.550 635.160, 312 635.500 C 311.450 635.840, 311 637.190, 311 638.500 C 311 639.810, 310.550 641.160, 310 641.500 C 309.450 641.840, 309 643.190, 309 644.500 C 309 645.810, 308.550 647.160, 308 647.500 C 307.450 647.840, 307 648.998, 307 650.073 C 307 651.148, 306.594 652.809, 306.097 653.764 C 305.601 654.719, 304.649 657.525, 303.981 660 C 303.314 662.475, 302.422 665.625, 302 667 C 301.578 668.375, 300.765 671.300, 300.195 673.500 C 299.625 675.700, 298.673 679.352, 298.079 681.616 C 297.486 683.880, 297 686.885, 297 688.293 C 297 691.308, 292.839 695, 289.442 695 C 286.587 695, 281.491 690.025, 280.530 686.299 C 280.133 684.760, 279.421 680.125, 278.948 676 C 276.992 658.932, 275.055 650.063, 269.776 634 C 268.421 629.875, 266.292 623.125, 265.047 619 C 263.801 614.875, 262.381 610.466, 261.891 609.203 C 261.401 607.940, 261 606.021, 261 604.939 C 261 603.858, 260.594 602.191, 260.097 601.236 C 259.601 600.281, 258.654 597.475, 257.993 595 C 257.332 592.525, 256.389 589.466, 255.896 588.203 C 255.403 586.940, 255 584.577, 255 582.953 C 255 581.329, 254.605 580, 254.121 580 C 253.160 580, 251.901 583.055, 250 590 C 249.322 592.475, 248.422 595.625, 248 597 C 247.578 598.375, 246.678 601.525, 246 604 C 245.322 606.475, 244.422 609.625, 244 611 C 243.578 612.375, 242.669 615.525, 241.981 618 C 239.403 627.270, 238.722 629.560, 237.872 631.797 C 237.392 633.060, 237 635.171, 237 636.488 C 237 637.805, 236.600 639.129, 236.110 639.432 C 235.621 639.734, 234.988 641.448, 234.704 643.241 C 234.419 645.033, 233.664 648.300, 233.027 650.500 C 232.389 652.700, 231.447 656.188, 230.934 658.250 C 228.328 668.716, 227.818 670.826, 226.945 674.750 C 226.425 677.087, 225.550 681.025, 225 683.500 C 224.450 685.975, 223.550 690.025, 223 692.500 C 219.567 707.949, 218.487 713.234, 216.970 722 C 216.447 725.025, 215.600 730.875, 215.089 735 C 214.578 739.125, 213.861 743.261, 213.496 744.190 C 212.644 746.358, 208.621 749, 206.170 749 C 203.378 749, 199.347 745.454, 198.525 742.273 C 197.022 736.459, 194.456 709.126, 192.961 683 C 192.005 666.296, 190.920 652.334, 189.454 637.876 C 188.785 631.272, 188.771 631.248, 185.025 630.126 C 182.959 629.507, 177.045 628.999, 171.884 628.998 C 159.363 628.996, 155.631 627.289, 155.198 621.363 C 154.941 617.841, 155.310 616.901, 157.687 615.032 C 159.850 613.330, 161.266 612.975, 163.989 613.450 C 165.920 613.787, 173.350 614.445, 180.500 614.912 C 197.169 616, 199.644 616.955, 201.464 623 C 203.642 630.237, 205.826 652.203, 206.608 674.750 C 207.157 690.563, 208.104 694.885, 209.347 687.250 C 209.683 685.188, 210.442 681.475, 211.034 679 C 211.625 676.525, 212.510 672.700, 213 670.500 C 213.490 668.300, 214.345 664.700, 214.901 662.500 C 215.456 660.300, 216.190 657.150, 216.531 655.500 C 216.872 653.850, 217.533 651.600, 218 650.500 C 218.467 649.400, 219.077 647.375, 219.355 646 C 219.633 644.625, 220.372 641.700, 220.997 639.500 C 221.622 637.300, 222.523 633.925, 223 632 C 223.809 628.736, 224.253 627.125, 227.070 617.250 C 227.658 615.188, 228.367 612.375, 228.645 611 C 228.923 609.625, 229.504 607.600, 229.937 606.500 C 231.578 602.325, 233 597.295, 233 595.665 C 233 594.735, 233.406 593.191, 233.903 592.236 C 234.399 591.281, 235.351 588.475, 236.019 586 C 236.686 583.525, 237.578 580.375, 238 579 C 238.422 577.625, 239.331 574.475, 240.019 572 C 242.597 562.730, 243.278 560.440, 244.128 558.203 C 244.608 556.940, 245 554.107, 245 551.907 C 245 547.419, 248.427 543, 251.907 543 C 256.687 543, 261 547.060, 261 551.561 C 261 552.367, 261.395 553.809, 261.877 554.764 C 263.337 557.653, 265 563.510, 265 565.762 C 265 566.928, 265.450 568.160, 266 568.500 C 266.550 568.840, 267 570.072, 267 571.238 C 267 572.404, 267.412 574.740, 267.916 576.429 C 268.420 578.118, 269.705 582.425, 270.772 586 C 272.657 592.316, 274.039 597.257, 276.227 605.500 C 277.680 610.975, 281.087 622.063, 282.065 624.500 C 282.507 625.600, 283.348 628.075, 283.935 630 C 284.522 631.925, 285.902 636.387, 287.001 639.915 C 288.101 643.443, 289 647.606, 289 649.165 C 289 650.724, 289.395 652, 289.879 652 C 291.008 652, 291.836 649.830, 298.080 630.500 C 300.923 621.700, 303.589 613.600, 304.005 612.500 C 304.881 610.184, 308.363 598.340, 309.884 592.500 C 310.457 590.300, 311.212 584.948, 311.562 580.606 C 312.081 574.155, 312.629 572.280, 314.553 570.356 C 317.370 567.539, 321.923 567.271, 324.831 569.750 C 326.824 571.449, 331 582.522, 331 586.106 C 331 587.083, 331.400 588.129, 331.890 588.432 C 332.379 588.734, 333.032 590.448, 333.342 592.241 C 333.652 594.033, 334.182 597.075, 334.521 599 C 334.859 600.925, 335.522 603.400, 335.993 604.500 C 336.464 605.600, 337.128 607.850, 337.469 609.500 C 337.810 611.150, 338.499 614.075, 338.999 616 C 339.499 617.925, 340.400 621.525, 341 624 C 341.600 626.475, 342.500 630.075, 343 632 C 344.350 637.199, 345.995 643.984, 347 648.500 C 347.490 650.700, 348.345 654.300, 348.900 656.500 C 351.084 665.161, 351.947 668.697, 353.049 673.500 C 353.680 676.250, 354.627 680.300, 355.153 682.500 C 357.488 692.267, 359.619 702.665, 360.890 710.500 C 361.336 713.250, 362.041 716.288, 362.457 717.250 C 363.226 719.028, 365 719.677, 365 718.180 C 365 717.729, 367.498 713.566, 370.551 708.930 C 377.019 699.107, 387 679.152, 387 676.044 C 387 673.422, 389.734 667.954, 391.904 666.236 C 392.853 665.485, 394.717 665.215, 396.500 665.571 C 398.150 665.900, 404.450 666.575, 410.500 667.071 C 427.710 668.482, 439.590 670.142, 468 675.107 C 474.916 676.315, 484.366 677.884, 489.250 678.634 C 492.261 679.097, 493 678.895, 493 677.610 C 493 676.730, 495.250 673.712, 498 670.904 C 500.750 668.095, 503 665.396, 503 664.906 C 503 664.416, 503.882 662.999, 504.960 661.758 C 516.964 647.934, 541.254 591.017, 547.533 562 C 550.601 547.821, 550.392 516.227, 547.083 494 C 546.008 486.776, 539.731 463.442, 535.069 449.342 C 529.193 431.566, 519.841 411.976, 513.770 404.726 C 508.966 398.988, 497.354 389.336, 490.129 385.076 C 475.023 376.169, 448.736 364.161, 434.500 359.664 C 420.556 355.259, 403.241 354.018, 395.790 356.889 C 394.530 357.374, 389.675 358.772, 385 359.995 C 373.024 363.128, 363.092 368.355, 349.371 378.746 C 335.450 389.289, 316.703 405.252, 309.278 412.885 C 305.712 416.551, 303.881 417.827, 303.539 416.885 C 303.059 415.559, 302.429 412.204, 298.018 387.500 C 293.208 360.557, 289.090 348.415, 277.991 328.442 C 272.347 318.285, 252.968 298.096, 241.356 290.275 C 234.060 285.360, 215.968 276.533, 209 274.489 C 207.625 274.085, 206.050 273.400, 205.500 272.966 C 201.979 270.188, 163.487 267.809, 157 269.968 M 1531 465.693 C 1520.096 469.582, 1517 473.885, 1517 485.148 C 1517 490.860, 1517.442 493.019, 1519.105 495.438 C 1523.450 501.758, 1529.422 504.286, 1540 504.285 C 1554.529 504.283, 1563 497.067, 1563 484.693 C 1563 472.288, 1554.008 464.945, 1539 465.094 C 1535.425 465.129, 1531.825 465.399, 1531 465.693 M 986.200 468.200 C 984.584 469.816, 984.624 481.458, 986.250 482.745 C 986.938 483.289, 990.397 483.984, 993.938 484.289 C 999.665 484.783, 1000.740 485.232, 1003.688 488.355 L 1007 491.866 1007 567.947 C 1007 645.275, 1006.983 645.672, 1003.479 649.553 C 1001.572 651.667, 998.512 652.796, 992.750 653.514 L 987 654.230 987 661.615 L 987 669 1028 669 L 1069 669 1069 661.638 L 1069 654.275 1063.538 653.633 C 1049.917 652.033, 1049.996 652.284, 1050.017 610.216 C 1050.035 575.677, 1050.775 567.179, 1054.434 559.517 C 1055.948 556.345, 1061.945 550.366, 1065.736 548.249 C 1072.198 544.640, 1084.004 549.651, 1087.448 557.464 C 1088.184 559.134, 1089.172 561.400, 1089.643 562.500 C 1090.114 563.600, 1090.725 587.900, 1091 616.500 L 1091.500 668.500 1121.794 668.765 L 1152.088 669.029 1151.794 661.765 L 1151.500 654.500 1145.563 653.609 C 1139.004 652.624, 1135.837 650.291, 1134.487 645.450 C 1134.035 643.828, 1133.369 623.600, 1133.007 600.500 C 1132.644 577.400, 1131.896 556.677, 1131.344 554.448 C 1129.040 545.141, 1120.017 531, 1116.384 531 C 1115.623 531, 1115 530.605, 1115 530.121 C 1115 529.638, 1113.537 528.693, 1111.750 528.020 C 1109.963 527.348, 1107.600 526.418, 1106.500 525.954 C 1099.217 522.878, 1083.156 522.315, 1072.348 524.757 C 1063.088 526.850, 1053.923 533.654, 1050.368 541.076 C 1047.999 546.023, 1046.602 546.105, 1047.390 541.250 C 1049.556 527.915, 1051.056 474.044, 1049.410 468.750 C 1048.907 467.133, 1046.528 467, 1018.133 467 C 995.563 467, 987.081 467.319, 986.200 468.200 M 690.500 478.189 C 687.750 478.731, 684.719 479.585, 683.764 480.087 C 682.809 480.589, 681.340 481, 680.500 481 C 679.660 481, 678.191 481.399, 677.236 481.886 C 676.281 482.373, 673.138 483.800, 670.250 485.057 C 667.362 486.314, 665 487.715, 665 488.171 C 665 488.627, 664.399 489, 663.664 489 C 661.240 489, 649.479 502.352, 646.533 508.448 C 637.054 528.066, 640.448 552.049, 654.855 567.250 C 657.852 570.413, 660.706 573, 661.196 573 C 661.686 573, 663.276 574.102, 664.729 575.450 C 667.761 578.261, 688.853 589, 691.342 589 C 692.254 589, 693 589.415, 693 589.922 C 693 590.430, 694.688 591.386, 696.750 592.047 C 704.374 594.492, 720.647 603.538, 725.357 607.950 C 731.425 613.634, 735 620.748, 735 627.140 C 735 633.867, 732.138 640.880, 727.507 645.500 C 721.356 651.636, 712.514 654.965, 702.309 654.985 C 698.354 654.993, 694.840 654.550, 694.500 654 C 694.160 653.450, 693.002 653, 691.927 653 C 689.204 653, 686.356 651.227, 680.681 646 C 674.102 639.940, 671.461 634.302, 668.768 620.571 C 666.593 609.479, 666.397 609.006, 664 609.046 C 660.947 609.098, 652.367 611.300, 651.382 612.285 C 650.988 612.678, 649.842 613, 648.833 613 C 647.825 613, 647 613.343, 647 613.763 C 647 614.182, 646.024 614.970, 644.832 615.513 C 643.639 616.056, 642.177 617.400, 641.582 618.500 C 640.987 619.600, 640.230 620.725, 639.900 621 C 637.641 622.881, 636.621 627.346, 636.687 635.055 C 636.776 645.364, 638.730 649.919, 646.175 657.171 C 650.688 661.566, 660.171 667, 663.330 667 C 664.028 667, 665.027 667.378, 665.550 667.839 C 666.665 668.824, 675.007 670.612, 683.500 671.686 C 699.482 673.708, 723.794 671.243, 732.960 666.670 C 734.801 665.751, 736.913 665, 737.654 665 C 738.394 665, 739 664.550, 739 664 C 739 663.450, 739.900 663, 741 663 C 742.100 663, 743 662.550, 743 662 C 743 661.450, 743.590 661, 744.311 661 C 745.033 661, 746.589 660.100, 747.770 659 C 748.950 657.900, 750.290 657, 750.746 657 C 752.040 657, 761 647.577, 761 646.216 C 761 645.547, 761.404 645, 761.898 645 C 762.391 645, 764.529 641.513, 766.648 637.250 L 770.500 629.500 770.500 614 L 770.500 598.500 767.154 592 C 764.138 586.143, 752.782 573, 750.737 573 C 750.286 573, 748.950 572.100, 747.770 571 C 746.589 569.900, 745.033 569, 744.311 569 C 743.590 569, 743 568.643, 743 568.206 C 743 566.942, 717.238 555, 714.511 555 C 713.680 555, 713 554.550, 713 554 C 713 553.450, 712.388 553, 711.640 553 C 709.804 553, 697.979 546.933, 695.561 544.750 C 694.495 543.788, 693.145 542.982, 692.561 542.961 C 691.978 542.939, 689.136 540.577, 686.246 537.711 C 682.653 534.147, 680.361 530.766, 678.996 527.014 C 676.870 521.171, 676.345 513.523, 678 512.500 C 678.550 512.160, 679.010 510.896, 679.023 509.691 C 679.053 506.804, 688.425 497.820, 693.071 496.226 C 705.561 491.939, 718.835 497.724, 724.674 510 C 727.975 516.941, 728.307 518.071, 728.924 524.500 L 729.500 530.500 734.675 530.800 C 740.912 531.161, 749.216 528.897, 754.700 525.341 C 764.489 518.994, 766.660 508.913, 760.765 497.181 C 758.939 493.548, 756.542 490.293, 755.265 489.711 C 754.019 489.143, 753 488.348, 753 487.944 C 753 486.763, 740.354 481, 737.763 481 C 736.463 481, 734.973 480.594, 734.450 480.097 C 732.138 477.899, 699.227 476.471, 690.500 478.189 M 1406.200 495.200 C 1405.540 495.860, 1405 497.189, 1405 498.153 C 1405 501.262, 1398.724 515.154, 1396.477 517.019 C 1395.665 517.693, 1395 518.834, 1395 519.555 C 1395 520.276, 1394.213 521.116, 1393.250 521.422 C 1392.287 521.728, 1390.375 522.995, 1389 524.239 C 1384.966 527.887, 1377.348 531, 1372.453 531 L 1369 531 1369 539 L 1369 547 1378.500 547 L 1388 547 1388.071 588.750 C 1388.148 634.192, 1388.755 645.798, 1391.321 650.941 C 1392.244 652.792, 1393 654.913, 1393 655.654 C 1393 656.394, 1393.450 657, 1394 657 C 1394.550 657, 1395 657.587, 1395 658.304 C 1395 660.234, 1400.871 665.501, 1405.922 668.103 C 1415.411 672.991, 1436.861 673.876, 1452 670.004 C 1467.108 666.140, 1466.279 667.042, 1465.799 654.988 L 1465.500 647.500 1462.500 647.834 C 1460.850 648.017, 1455.057 648.386, 1449.627 648.653 C 1439.874 649.132, 1439.718 649.104, 1436.791 646.319 C 1429.920 639.782, 1429.326 635.075, 1429.249 586.537 L 1429.186 547 1446.093 547 L 1463 547 1463.130 543.250 C 1463.202 541.188, 1463.360 536.688, 1463.482 533.250 L 1463.703 527 1446.533 527 L 1429.363 527 1429.467 512.250 C 1429.524 504.137, 1429.390 496.712, 1429.169 495.750 C 1428.817 494.218, 1427.438 494, 1418.083 494 C 1411.107 494, 1406.984 494.416, 1406.200 495.200 M 874.500 524 C 873.400 524.473, 870.614 524.891, 868.309 524.930 C 866.004 524.968, 863.840 525.450, 863.500 526 C 863.160 526.550, 861.810 527, 860.500 527 C 859.190 527, 857.840 527.450, 857.500 528 C 857.160 528.550, 856.009 529, 854.941 529 C 853.873 529, 853 529.450, 853 530 C 853 530.550, 852.100 531, 851 531 C 849.900 531, 849 531.450, 849 532 C 849 532.550, 848.409 533, 847.687 533 C 845.549 533, 831.931 547.180, 830.160 551.250 C 829.262 553.313, 828.184 555, 827.764 555 C 827.344 555, 827 555.590, 827 556.312 C 827 557.034, 826.100 559.487, 825 561.764 C 823.900 564.041, 823 566.960, 823 568.252 C 823 569.543, 822.594 571.028, 822.097 571.550 C 819.733 574.037, 818.329 603.574, 820.032 615 C 820.728 619.675, 821.681 623.928, 822.149 624.450 C 822.617 624.973, 823 626.497, 823 627.839 C 823 629.180, 825.083 634.475, 827.629 639.604 C 832.575 649.569, 841.196 659.192, 847.750 662.064 C 849.538 662.847, 851 663.828, 851 664.244 C 851 664.660, 851.862 665, 852.917 665 C 853.971 665, 854.983 665.362, 855.167 665.803 C 855.350 666.245, 858.650 667.554, 862.500 668.711 C 888.377 676.491, 921.184 671.961, 934.064 658.830 C 938.950 653.849, 942.285 646.057, 941.332 641.847 C 939.835 635.229, 935.550 629.464, 932.895 630.492 C 932.128 630.788, 930.375 632.711, 929 634.765 C 927.625 636.818, 925.600 639.401, 924.500 640.503 C 921.774 643.236, 910.696 649, 908.169 649 C 907.041 649, 905.840 649.450, 905.500 650 C 905.160 650.550, 901.640 651, 897.677 651 C 889.761 651, 881.180 648.457, 877.532 645.030 C 876.344 643.914, 874.838 643, 874.186 643 C 873.533 643, 873 642.380, 873 641.622 C 873 640.865, 872.335 639.693, 871.523 639.019 C 869.721 637.524, 865.427 628.613, 864.526 624.500 C 863.674 620.608, 861.847 608.215, 861.652 605 L 861.500 602.500 904.500 602 L 947.500 601.500 947.255 586.500 C 947.121 578.250, 946.527 569.700, 945.936 567.500 C 943.662 559.034, 941.658 553.439, 940.355 551.921 C 939.610 551.053, 938.998 549.928, 938.995 549.421 C 938.993 548.915, 937.643 547.062, 935.995 545.304 C 934.348 543.547, 933 541.644, 933 541.077 C 933 540.510, 931.763 539.252, 930.250 538.281 C 928.737 537.310, 926.600 535.686, 925.500 534.671 C 922.944 532.313, 916.541 529, 914.540 529 C 913.693 529, 913 528.550, 913 528 C 913 527.450, 911.869 527, 910.486 527 C 909.104 527, 907.191 526.598, 906.236 526.108 C 901.058 523.446, 879.171 521.993, 874.500 524 M 1244.500 523.952 C 1243.400 524.451, 1240.164 524.891, 1237.309 524.930 C 1234.454 524.968, 1231.840 525.450, 1231.500 526 C 1231.160 526.550, 1229.671 527.008, 1228.191 527.019 C 1225.333 527.039, 1212.780 532.984, 1209.687 535.783 C 1204.436 540.536, 1201.997 552.392, 1205.023 558.463 C 1208.274 564.985, 1218.706 569, 1232.404 569 L 1241 569 1241 563.059 C 1241 559.791, 1241.450 556.840, 1242 556.500 C 1242.550 556.160, 1243 554.990, 1243 553.900 C 1243 552.094, 1245.971 547.066, 1248.539 544.527 C 1253.312 539.807, 1262.573 539.794, 1267.461 544.500 C 1268.494 545.494, 1269.724 547.947, 1271.875 553.297 C 1272.514 554.886, 1273 561.917, 1273 569.572 L 1273 583.050 1270.435 584.025 C 1269.024 584.561, 1261.964 585, 1254.745 585 C 1247.527 585, 1238.893 585.496, 1235.560 586.102 C 1227.534 587.561, 1215.011 591.307, 1215.005 592.250 C 1215.002 592.663, 1214.100 593, 1213 593 C 1211.900 593, 1211 593.450, 1211 594 C 1211 594.550, 1210.369 595, 1209.597 595 C 1208.182 595, 1199.326 603.667, 1197.613 606.727 C 1194.318 612.615, 1193 618.954, 1193 628.915 C 1193 634.659, 1193.520 640.965, 1194.155 642.929 C 1196.681 650.743, 1200.518 657.530, 1204.641 661.481 C 1211.617 668.165, 1216.098 669.972, 1232.339 672.653 C 1237.349 673.481, 1249.104 671.285, 1255.816 668.270 C 1259.201 666.749, 1263.646 663.337, 1268.055 658.875 C 1275.010 651.837, 1277 651.086, 1277 655.500 C 1277 656.810, 1277.450 658.160, 1278 658.500 C 1278.550 658.840, 1279 660.195, 1279 661.512 C 1279 662.829, 1279.522 665.052, 1280.161 666.453 L 1281.321 669 1306.704 669 L 1332.088 669 1331.794 661.768 L 1331.500 654.537 1326.381 653.518 C 1320.547 652.358, 1318.680 651.070, 1316.503 646.705 C 1315.180 644.054, 1314.991 637.632, 1315.156 601.060 C 1315.296 570.058, 1315.030 557.907, 1314.174 556.316 C 1313.528 555.114, 1313 553.214, 1313 552.092 C 1313 549.658, 1308.942 541, 1307.801 541 C 1307.360 541, 1307 540.365, 1307 539.589 C 1307 538.298, 1305.486 536.832, 1298.840 531.689 C 1297.553 530.693, 1295.253 529.623, 1293.729 529.310 C 1292.205 528.997, 1290.716 528.350, 1290.420 527.871 C 1290.124 527.392, 1288.874 527, 1287.641 527 C 1286.408 527, 1284.973 526.594, 1284.450 526.097 C 1282.353 524.104, 1248.208 522.271, 1244.500 523.952 M 1706 523.951 C 1705.175 524.511, 1703.339 524.976, 1701.919 524.985 C 1698.070 525.008, 1690.265 529.324, 1685.348 534.149 C 1682.957 536.496, 1681 538.805, 1681 539.280 C 1681 540.292, 1678.047 543.410, 1677.601 542.869 C 1676.686 541.758, 1675 535.317, 1675 532.933 C 1675 526.707, 1676.462 527, 1645.351 527 L 1616.916 527 1617.208 534.750 L 1617.500 542.500 1623 542.808 C 1627.342 543.051, 1629.087 543.677, 1631.288 545.782 C 1637.079 551.318, 1637 550.615, 1637 596.788 C 1637 625.768, 1636.637 640.481, 1635.857 643.084 C 1634.004 649.269, 1629.980 652.337, 1622.194 653.500 L 1615.500 654.500 1615.206 661.761 L 1614.912 669.022 1656.706 668.761 L 1698.500 668.500 1698.802 662.666 C 1698.970 659.432, 1698.615 656.242, 1698.007 655.509 C 1697.403 654.781, 1694.266 653.879, 1691.034 653.504 C 1686.058 652.926, 1684.685 652.301, 1682.056 649.412 L 1678.953 646.002 1679.291 608.251 C 1679.477 587.488, 1679.972 569.150, 1680.392 567.500 C 1681.714 562.300, 1685.346 555.624, 1688.750 552.134 C 1691.623 549.187, 1692.822 548.704, 1698.354 548.260 C 1704.555 547.762, 1710.567 549.430, 1713.506 552.462 C 1715.181 554.191, 1718.813 562.276, 1719.587 566 C 1719.987 567.925, 1720.481 591.888, 1720.684 619.250 L 1721.054 669 1751.027 669 L 1781 669 1781 661.615 L 1781 654.230 1775.250 653.523 C 1769.507 652.817, 1766.840 651.303, 1764.657 647.511 C 1763.865 646.135, 1763.290 632.715, 1762.836 605 C 1762.177 564.802, 1761.639 555.377, 1759.903 553.550 C 1759.406 553.027, 1759 551.592, 1759 550.359 C 1759 549.126, 1758.550 547.840, 1758 547.500 C 1757.450 547.160, 1757 546.009, 1757 544.941 C 1757 543.873, 1756.550 543, 1756 543 C 1755.450 543, 1755 542.423, 1755 541.719 C 1755 539.686, 1743.904 529.494, 1739.500 527.481 C 1737.300 526.476, 1733.700 525.233, 1731.500 524.720 C 1725.446 523.307, 1707.736 522.773, 1706 523.951 M 1499 535 L 1499 543 1504.514 543 C 1510.350 543, 1512.806 543.979, 1516.945 547.955 L 1519.500 550.410 1519.500 598 L 1519.500 645.591 1516.923 648.168 C 1513.233 651.858, 1510.940 652.872, 1504.605 653.617 L 1499 654.275 1499 661.638 L 1499 669 1540.891 669 L 1582.781 669 1583.177 665.607 C 1583.395 663.741, 1583.403 660.423, 1583.194 658.234 L 1582.814 654.254 1577.321 653.608 C 1571.098 652.877, 1567.406 651.212, 1564.500 647.829 C 1562.556 645.565, 1562.492 643.840, 1562.213 586.250 L 1561.925 527 1530.463 527 L 1499 527 1499 535 M 883 542.731 C 877.559 543.497, 870.820 548.666, 868.309 554 C 865.360 560.262, 863.106 569.084, 862.816 575.500 L 862.500 582.500 883.968 582.500 L 905.435 582.500 905.147 573.500 C 904.487 552.886, 895.873 540.918, 883 542.731 M 1267.500 600.057 C 1265.300 600.512, 1261.507 600.911, 1259.071 600.942 C 1245.082 601.124, 1235 612.759, 1235 628.722 C 1235 637.535, 1236.887 643.910, 1240.631 647.750 C 1243.524 650.717, 1244.333 651, 1249.914 651 C 1260.556 651, 1266.684 645.551, 1271.458 631.843 C 1273.054 627.260, 1273.741 598.886, 1272.250 599.115 C 1271.838 599.178, 1269.700 599.602, 1267.500 600.057" stroke="none" fill="#fb0404" fill-rule="evenodd"/></svg>