<svg xmlns="http://www.w3.org/2000/svg" width="1280" height="1280" viewBox="0 0 1280 1280" version="1.1"><path d="M 621.407 260.058 C 492.442 272.569, 392.937 389.740, 393.014 529 C 393.080 648.958, 465.724 753.837, 572.653 788.349 C 608.083 799.785, 650.213 802.221, 687.521 794.991 C 735.032 785.785, 777.198 762.962, 813.031 727.060 C 855.053 684.957, 880.774 633.171, 890.542 571 C 892.761 556.881, 893.627 516.963, 892.055 501.336 C 883.486 416.191, 839.757 341.894, 772.386 298.013 C 727.132 268.538, 673.353 255.018, 621.407 260.058 M 611.500 814.583 C 608.750 814.785, 599.525 815.431, 591 816.019 C 508.634 821.704, 429.134 842.638, 359.500 876.978 C 326.113 893.443, 307.207 904.940, 279.266 925.769 C 204.095 981.809, 155.957 1054.574, 142.503 1132.500 C 141.398 1138.902, 139 1158.040, 139 1160.461 C 139 1160.757, 365.145 1161, 641.545 1161 L 1144.091 1161 1143.593 1157.750 C 1143.319 1155.963, 1142.817 1151.575, 1142.476 1148 C 1141.476 1137.494, 1138.387 1121.032, 1135.116 1108.775 C 1110.807 1017.687, 1039.046 936.718, 934.500 882.417 C 864.300 845.955, 786.747 824.232, 699 816.451 C 682.794 815.014, 623.043 813.739, 611.500 814.583" stroke="none" fill="#acb4b4" fill-rule="evenodd"/><path d="M -0 640.001 L -0 1280.002 640.250 1279.751 L 1280.500 1279.500 1280.751 639.750 L 1281.002 0 640.501 0 L 0 0 -0 640.001 M 0.497 640.500 C 0.497 992.500, 0.611 1136.351, 0.750 960.168 C 0.889 783.985, 0.889 495.985, 0.750 320.168 C 0.611 144.351, 0.497 288.500, 0.497 640.500 M 621.407 260.058 C 492.442 272.569, 392.937 389.740, 393.014 529 C 393.080 648.958, 465.724 753.837, 572.653 788.349 C 608.083 799.785, 650.213 802.221, 687.521 794.991 C 735.032 785.785, 777.198 762.962, 813.031 727.060 C 855.053 684.957, 880.774 633.171, 890.542 571 C 892.761 556.881, 893.627 516.963, 892.055 501.336 C 883.486 416.191, 839.757 341.894, 772.386 298.013 C 727.132 268.538, 673.353 255.018, 621.407 260.058 M 611.500 814.583 C 608.750 814.785, 599.525 815.431, 591 816.019 C 508.634 821.704, 429.134 842.638, 359.500 876.978 C 326.113 893.443, 307.207 904.940, 279.266 925.769 C 204.095 981.809, 155.957 1054.574, 142.503 1132.500 C 141.398 1138.902, 139 1158.040, 139 1160.461 C 139 1160.757, 365.145 1161, 641.545 1161 L 1144.091 1161 1143.593 1157.750 C 1143.319 1155.963, 1142.817 1151.575, 1142.476 1148 C 1141.476 1137.494, 1138.387 1121.032, 1135.116 1108.775 C 1110.807 1017.687, 1039.046 936.718, 934.500 882.417 C 864.300 845.955, 786.747 824.232, 699 816.451 C 682.794 815.014, 623.043 813.739, 611.500 814.583" stroke="none" fill="#e4e4e4" fill-rule="evenodd"/></svg>